<?xml version="1.0" standalone="no"?>
<!DOCTYPE svg PUBLIC "-//W3C//DTD SVG 20010904//EN"
 "http://www.w3.org/TR/2001/REC-SVG-20010904/DTD/svg10.dtd">
<svg version="1.0" xmlns="http://www.w3.org/2000/svg"
 width="640.000000pt" height="366.000000pt" viewBox="0 0 640.000000 366.000000"
 preserveAspectRatio="xMidYMid meet">
<metadata>
Created by potrace 1.16, written by Peter Selinger 2001-2019
</metadata>
<g transform="translate(0.000000,366.000000) scale(0.100000,-0.100000)"
fill="#000000" stroke="none">
<path d="M3030 3131 c0 -5 5 -11 11 -13 8 -3 5 -18 -9 -46 l-20 -42 25 0 c22
0 24 2 13 15 -11 13 -8 15 20 15 24 0 31 -4 26 -15 -4 -12 5 -15 51 -15 48 0
54 2 40 13 -12 9 -14 16 -7 27 9 13 14 11 33 -12 21 -26 28 -28 95 -28 65 0
72 2 72 20 0 11 -4 20 -10 20 -5 0 -10 -7 -10 -15 0 -10 -10 -15 -30 -15 -23
0 -30 4 -30 20 0 23 10 26 28 8 9 -9 12 -6 12 14 0 21 -4 25 -20 21 -11 -3
-20 -1 -20 5 0 17 40 21 55 5 13 -13 15 -12 15 6 0 18 -6 21 -50 21 -27 0 -50
-4 -50 -10 0 -5 5 -10 11 -10 6 0 9 -16 7 -37 -4 -50 -35 -57 -60 -13 -17 29
-16 31 2 43 25 15 26 27 2 27 -9 0 -23 -9 -30 -20 -7 -11 -17 -20 -24 -20 -6
0 -3 9 7 20 18 20 17 20 -15 20 -27 0 -30 -2 -21 -14 16 -19 10 -78 -7 -84 -8
-2 -21 16 -34 47 -19 44 -26 51 -50 51 -15 0 -28 -4 -28 -9z"/>
<path d="M6128 260 c-43 -23 -42 -41 7 -97 38 -43 53 -41 93 17 31 46 28 64
-13 83 -43 21 -41 21 -87 -3z"/>
</g>
</svg>
